#N canvas 1312 277 512 462 10;
#X obj 9 25 udpreceive 9000;
#X obj 104 88 unpackOSC;
#X obj 107 280 print;
#X obj 105 191 routeOSC /noteon;
#X floatatom 182 333 5 0 0 0 - - -;
#X floatatom 230 333 5 0 0 0 - - -;
#X floatatom 280 332 5 0 0 0 - - -;
#X obj 181 285 unpack f f f;
#X text 112 23 listen;
#X obj 105 139 routeOSC /midi;
#X obj 261 191 routeOSC /noteoff;
#X obj 219 383 noteout;
#X obj 352 280 print;
#X connect 0 0 1 0;
#X connect 1 0 9 0;
#X connect 3 0 2 0;
#X connect 3 0 7 0;
#X connect 4 0 11 0;
#X connect 5 0 11 1;
#X connect 6 0 11 2;
#X connect 7 0 4 0;
#X connect 7 1 5 0;
#X connect 7 2 6 0;
#X connect 9 0 10 0;
#X connect 9 0 3 0;
#X connect 10 0 7 0;
#X connect 10 0 12 0;
